<svg xmlns="http://www.w3.org/2000/svg" width="80.07mm" height="80.06mm" viewBox="0 0 226.96 226.95">
  <defs>
    <style>
      .cls-1 {
        fill: #2b74ba;
      }

      .cls-2 {
        fill: #4980c2;
      }

      .cls-3 {
        fill: #acbce2;
      }
    </style>
  </defs>
  <title>Risorsa 1iconav</title>
  <g id="Livello_2" data-name="Livello 2">
    <g id="Livello_1-2" data-name="Livello 1">
      <g>
        <path class="cls-1" d="M113.79,227C51.48,226.91-.09,175.46,0,113.44S52-.19,114,0c61.81.19,113.11,51.86,113,113.8C226.83,176.39,176.21,227,113.79,227Zm29.49-89.1c21.1,10.64,33.44,27.4,38,50.1,24.26-19.74,42.12-61.43,28.6-104.4C196.76,41.72,157.16,12.61,113,13c-44.4.42-83.64,30.36-96,73.14-11.77,40.6,4.93,81.72,28.7,101a69.88,69.88,0,0,1,12.93-29.46c6.7-8.86,15.25-15.39,25.28-20.38C55,112.47,60.72,79.48,77.43,62.3,96.56,42.65,129,42.05,148.53,61,167.25,79.22,171.5,114.67,143.28,137.85Zm-28.6,76.92c13.21-.29,27.13-2.59,40-8.88,14.57-7.1,13.74-3.57,9.91-20.69-5.41-24.19-30.19-41.47-54.51-39.07-26.93,2.66-47.9,23.31-49.46,48.49-.22,3.44.65,5.44,3.75,7.14A105.8,105.8,0,0,0,114.68,214.77Zm-.52-152.16C95.64,62.52,80,77.92,79.85,96.37c-.15,19.26,15.11,35.11,33.94,35.25s35-15.62,35-34.37A34.72,34.72,0,0,0,114.16,62.61ZM69.64,91.91h-.49v9.93h.49ZM49.7,191.19c2.07-2.72,2.65-4.49,1.66-7.09C50.83,186.38,50.41,188.18,49.7,191.19Z"/>
        <ellipse class="cls-2" cx="69.39" cy="96.88" rx="0.34" ry="7.02"/>
        <path class="cls-3" d="M49.7,191.19c.71-3,1.13-4.81,1.66-7.09C52.35,186.7,51.77,188.47,49.7,191.19Z"/>
      </g>
    </g>
  </g>
</svg>
